<svg xmlns="http://www.w3.org/2000/svg" version="1.1" xmlns:xlink="http://www.w3.org/1999/xlink" xmlns:svgjs="http://svgjs.dev/svgjs" width="1000" height="1000"><style>
    #light-icon {
      display: inline;
    }
    #dark-icon {
      display: none;
    }

    @media (prefers-color-scheme: dark) {
      #light-icon {
        display: none;
      }
      #dark-icon {
        display: inline;
      }
    }
  </style><g id="light-icon"><svg xmlns="http://www.w3.org/2000/svg" version="1.1" xmlns:xlink="http://www.w3.org/1999/xlink" xmlns:svgjs="http://svgjs.dev/svgjs" width="1000" height="1000"><g clip-path="url(#SvgjsClipPath1048)"><rect width="1000" height="1000" fill="#ffffff"></rect><g transform="matrix(21.875,0,0,21.875,150,150)"><svg xmlns="http://www.w3.org/2000/svg" version="1.1" xmlns:xlink="http://www.w3.org/1999/xlink" xmlns:svgjs="http://svgjs.dev/svgjs" width="32" height="32"><svg xmlns="http://www.w3.org/2000/svg" viewBox="0 0 32 32">
	<rect width="32" height="32" fill="none"></rect>
	<path fill="currentColor" d="M18 16a7 7 0 1 0 0-14a7 7 0 0 0 0 14m0 14q-.505 0-1-.027a2.5 2.5 0 0 0-.732-1.74l-2.5-2.5c.47-.98.732-2.077.732-3.233A7.47 7.47 0 0 0 13 18h13.5a3.5 3.5 0 0 1 3.5 3.5v.5c0 2.393-1.523 4.417-3.685 5.793C24.141 29.177 21.198 30 18 30M7 28.5c1.296 0 2.496-.41 3.476-1.11l3.317 3.317a1 1 0 0 0 1.414-1.414l-3.316-3.316A6 6 0 1 0 7 28.5m0-2a4 4 0 1 1 0-8a4 4 0 0 1 0 8"></path>
</svg></svg></g></g><defs><clipPath id="SvgjsClipPath1048"><rect width="1000" height="1000" x="0" y="0" rx="350" ry="350"></rect></clipPath></defs></svg></g><g id="dark-icon"><svg xmlns="http://www.w3.org/2000/svg" version="1.1" xmlns:xlink="http://www.w3.org/1999/xlink" xmlns:svgjs="http://svgjs.dev/svgjs" width="1000" height="1000"><g clip-path="url(#SvgjsClipPath1049)"><rect width="1000" height="1000" fill="#ffffff"></rect><g transform="matrix(21.875,0,0,21.875,150,150)"><svg xmlns="http://www.w3.org/2000/svg" version="1.1" xmlns:xlink="http://www.w3.org/1999/xlink" xmlns:svgjs="http://svgjs.dev/svgjs" width="32" height="32"><svg xmlns="http://www.w3.org/2000/svg" viewBox="0 0 32 32">
	<rect width="32" height="32" fill="none"></rect>
	<path fill="currentColor" d="M18 16a7 7 0 1 0 0-14a7 7 0 0 0 0 14m0 14q-.505 0-1-.027a2.5 2.5 0 0 0-.732-1.74l-2.5-2.5c.47-.98.732-2.077.732-3.233A7.47 7.47 0 0 0 13 18h13.5a3.5 3.5 0 0 1 3.5 3.5v.5c0 2.393-1.523 4.417-3.685 5.793C24.141 29.177 21.198 30 18 30M7 28.5c1.296 0 2.496-.41 3.476-1.11l3.317 3.317a1 1 0 0 0 1.414-1.414l-3.316-3.316A6 6 0 1 0 7 28.5m0-2a4 4 0 1 1 0-8a4 4 0 0 1 0 8"></path>
</svg></svg></g></g><defs><clipPath id="SvgjsClipPath1049"><rect width="1000" height="1000" x="0" y="0" rx="350" ry="350"></rect></clipPath></defs></svg></g></svg>